<?xml version="1.0" encoding="utf-8"?>
<!-- Generator: Adobe Illustrator 24.0.1, SVG Export Plug-In . SVG Version: 6.00 Build 0)  -->
<svg version="1.1" id="Layer_1" xmlns="http://www.w3.org/2000/svg" xmlns:xlink="http://www.w3.org/1999/xlink" x="0px" y="0px"
	 viewBox="0 0 538.9 119.2" style="enable-background:new 0 0 538.9 119.2;" xml:space="preserve">
<style type="text/css">
	.st0{enable-background:new    ;}
</style>
<title>ABOUT</title>
<g class="st0">
	<path d="M81.3,110.2l-4.4-14.7H40.3l-4.4,14.7H1.5L39.7,5.6h39.1l38.2,104.6H81.3z M47.3,72h22.6L59,34.8h-0.6L47.3,72z"/>
	<path d="M192.4,8.9c4.4,2.2,7.9,5.2,10.5,9.2s3.9,8.4,3.9,13.2c0,12.9-5.8,21-17.5,24.3v0.6c13.3,3,19.9,11.8,19.9,26.1
		c0,5.5-1.3,10.3-4,14.5c-2.7,4.2-6.4,7.5-11,9.8c-4.7,2.3-9.8,3.5-15.4,3.5h-70.5V5.6h69.6C183.1,5.6,187.9,6.7,192.4,8.9z
		 M141.8,46.4h23.1c2.2,0,4.1-0.8,5.5-2.4c1.5-1.6,2.2-3.5,2.2-5.9v-1.5c0-2.2-0.8-4.1-2.3-5.7c-1.5-1.6-3.3-2.4-5.5-2.4h-23.1V46.4
		z M141.8,85.9h25.5c2.2,0,4.1-0.8,5.5-2.4c1.5-1.6,2.2-3.5,2.2-5.9v-1.5c0-2.3-0.7-4.3-2.2-5.9c-1.5-1.6-3.3-2.4-5.5-2.4h-25.5
		V85.9z"/>
	<path d="M299,17.6c9.8,9.2,14.7,22.6,14.7,40.3S308.8,89,299,98.2c-9.8,9.2-23.8,13.8-41.8,13.8c-18,0-31.9-4.6-41.7-13.8
		c-9.8-9.2-14.7-22.6-14.7-40.4c0-17.7,4.9-31.2,14.7-40.4c9.8-9.2,23.7-13.8,41.7-13.8C275.2,3.8,289.2,8.4,299,17.6z M240.8,35.4
		c-3.8,4.4-5.6,10.2-5.6,17.6v9.7c0,7.4,1.9,13.3,5.6,17.6c3.7,4.4,9.2,6.5,16.4,6.5c7.2,0,12.7-2.2,16.5-6.5
		c3.8-4.4,5.7-10.2,5.7-17.6V53c0-7.4-1.9-13.3-5.7-17.6c-3.8-4.4-9.3-6.5-16.5-6.5C250,28.9,244.5,31.1,240.8,35.4z"/>
	<path d="M401.1,100.8c-9,7.5-21.8,11.2-38.5,11.2c-16.6,0-29.5-3.7-38.5-11.2c-9.1-7.5-13.6-18.4-13.6-32.7V5.6h33.6v62
		c0,5.9,1.6,10.6,4.7,14.1c3.1,3.5,7.7,5.2,13.7,5.2c6,0,10.6-1.8,13.8-5.3c3.2-3.5,4.8-8.2,4.8-14v-62h33.6v62.5
		C414.7,82.4,410.1,93.3,401.1,100.8z"/>
	<path d="M476.1,32.4v77.8h-33.6V32.4h-34.4V5.6h102.1v26.8H476.1z"/>
</g>
</svg>
