<svg id="Layer_1" data-name="Layer 1" xmlns="http://www.w3.org/2000/svg" viewBox="0 0 658.95 108.22"><title>CONTACT2</title><path d="M91,11.63q13.53,11.62,13.53,33.21H72.48q0-9.12-4.79-14.44t-13.6-5.32q-10.19,0-15,6.38T34.33,49.25V59q0,11.25,4.79,17.7t14.66,6.46q9.74,0,14.75-5t5-14.14h31q0,21.43-13.15,32.83t-37.16,11.4q-26.76,0-40.51-13.68T0,54.11Q0,27.37,13.73,13.68T54.24,0Q77.49,0,91,11.63Z"/><path d="M195.9,13.83q14.74,13.83,14.75,40.28T195.9,94.39q-14.75,13.83-41.8,13.83T112.38,94.47Q97.71,80.72,97.71,54.11t14.67-40.35Q127.05,0,154.1,0T195.9,13.83ZM137.69,31.62q-5.62,6.52-5.63,17.63V59q0,11.09,5.63,17.63t16.41,6.53q10.8,0,16.5-6.53T176.3,59V49.25q0-11.1-5.7-17.63t-16.5-6.54Q143.32,25.08,137.69,31.62Z"/><path d="M283,106.4,239.07,55.63V106.4H208.21V1.82h29.34l43.93,51.53V1.82h30.85V106.4Z"/><path d="M374.5,28.58V106.4H340.91V28.58H306.56V1.82H408.7V28.58Z"/><path d="M463.27,106.4l-4.41-14.74H422.23l-4.41,14.74H383.47L421.62,1.82h39.06L498.84,106.4Zm-34-38.15h22.65L440.92,31h-.6Z"/><path d="M570.76,11.63q13.51,11.62,13.52,33.21H552.21q0-9.12-4.79-14.44t-13.6-5.32q-10.19,0-15,6.38t-4.79,17.79V59q0,11.25,4.79,17.7t14.67,6.46q9.72,0,14.74-5t5-14.14h31q0,21.43-13.14,32.83T534,108.22q-26.75,0-40.51-13.68T479.71,54.11q0-26.74,13.75-40.43T534,0Q557.24,0,570.76,11.63Z"/><path d="M624.73,28.58V106.4h-33.6V28.58H556.78V1.82H658.93V28.58Z"/></svg>