<svg id="Layer_1" data-name="Layer 1" xmlns="http://www.w3.org/2000/svg" viewBox="0 0 512 512"><title>logo_black</title><circle cx="171.84" cy="308.11" r="69.18"/><path d="M362.88,67.64c-11.66-19-21-38.09-38.76-50.15h0A101.59,101.59,0,0,0,180.73,155h0c7.91,10.45,18.3,19.65,27.26,30.12,30,34.33,73.73,91.5,71.1,137-3.89,67.11-38.58,80.91-38.58,80.91-28.23,17.87-57.86,11.05-76.91,4.12-7.73-2.61-12.71-6.39-19.74-7.75h0a42.66,42.66,0,0,0-50.83,42c0,15.12,9.32,27.89,19.7,36v0S172.65,536,282,500.65,414.66,373.2,418.68,285C421.8,216.41,402.42,132.52,362.88,67.64Z"/></svg>