<svg id="Layer_1" data-name="Layer 1" xmlns="http://www.w3.org/2000/svg" viewBox="0 0 500 750"><defs><style>.cls-1{fill:#fff;}</style></defs><title>logo_black2</title><rect class="cls-1" width="500" height="750"/><circle cx="60.44" cy="236.29" r="53.06"/><path d="M207,51.87c-9-14.57-16.11-29.21-29.73-38.46h0a77.91,77.91,0,0,0-110,105.46h0c6.07,8,14,15.07,20.91,23.1,23,26.33,56.54,70.17,54.52,105.07-3,51.47-29.58,62-29.58,62-21.65,13.7-44.38,8.47-59,3.16-5.93-2-9.75-4.9-15.14-5.94h0A32.73,32.73,0,0,0,0,338.52c0,11.59,7.15,21.39,15.11,27.61h0s46,44.94,129.82,17.83,101.74-97.75,104.82-165.39C252.14,166,237.28,101.63,207,51.87Z"/></svg>