<svg id="Layer_1" data-name="Layer 1" xmlns="http://www.w3.org/2000/svg" viewBox="0 0 461.45 487.15"><defs><style>.cls-1{opacity:0.04;}</style></defs><title>LogoPattern-02svg</title><g class="cls-1"><circle cx="10.89" cy="42.57" r="9.56"/><path d="M55.94,14.72c-1.61-2.63-2.9-5.26-5.36-6.93h0a14,14,0,0,0-19.81,19h0c1.09,1.44,2.53,2.71,3.77,4.16,4.14,4.74,10.18,12.64,9.82,18.93C43.82,59.15,39,61.06,39,61.06c-3.9,2.47-8,1.52-10.63.57a21.16,21.16,0,0,0-2.72-1.07h0a5.9,5.9,0,0,0-6.92,4.65,6.31,6.31,0,0,0-.11,1.15,6.52,6.52,0,0,0,2.73,5h0s8.27,8.1,23.38,3.21,18.33-17.6,18.89-29.79A56,56,0,0,0,55.94,14.72Z" transform="translate(-18.65 -5.38)"/><circle cx="57.16" cy="88.83" r="9.56"/><path d="M102.2,61c-1.61-2.63-2.9-5.26-5.35-6.93h0A14,14,0,0,0,77,73.06h0c1.09,1.44,2.53,2.71,3.77,4.16C85,82,91,89.86,90.63,96.15c-.54,9.27-5.33,11.17-5.33,11.17-3.9,2.47-8,1.53-10.63.57A23.41,23.41,0,0,0,72,106.82h0A5.9,5.9,0,0,0,65,111.48a6.31,6.31,0,0,0-.11,1.15,6.54,6.54,0,0,0,2.72,5h0s8.28,8.1,23.39,3.21S109.36,103.2,109.91,91A55.9,55.9,0,0,0,102.2,61Z" transform="translate(-18.65 -5.38)"/><circle cx="103.42" cy="135.1" r="9.56"/><path d="M148.47,107.26c-1.61-2.63-2.9-5.27-5.35-6.93h0a14,14,0,0,0-19.81,19h0c1.09,1.44,2.53,2.71,3.76,4.16,4.15,4.74,10.19,12.64,9.83,18.92-.54,9.28-5.33,11.18-5.33,11.18-3.9,2.47-8,1.53-10.63.57a23.52,23.52,0,0,0-2.73-1.07h0a5.89,5.89,0,0,0-6.91,4.66,6.29,6.29,0,0,0-.11,1.14,6.56,6.56,0,0,0,2.72,5h0s8.28,8.09,23.39,3.21,18.33-17.61,18.88-29.79A55.9,55.9,0,0,0,148.47,107.26Z" transform="translate(-18.65 -5.38)"/><circle cx="149.69" cy="181.37" r="9.56"/><path d="M194.74,153.52c-1.61-2.62-2.9-5.26-5.35-6.92h0a14,14,0,0,0-19.81,19h0c1.09,1.45,2.52,2.72,3.76,4.17,4.15,4.74,10.19,12.64,9.82,18.92-.53,9.27-5.33,11.18-5.33,11.18-3.9,2.47-8,1.53-10.62.57a23.52,23.52,0,0,0-2.73-1.07h0a5.89,5.89,0,0,0-6.91,4.66,5.44,5.44,0,0,0-.11,1.14,6.56,6.56,0,0,0,2.72,5h0s8.28,8.09,23.39,3.21,18.32-17.61,18.88-29.8A56,56,0,0,0,194.74,153.52Z" transform="translate(-18.65 -5.38)"/><circle cx="195.96" cy="227.64" r="9.56"/><path d="M241,199.79c-1.61-2.62-2.9-5.26-5.36-6.93h0a14,14,0,0,0-19.81,19h0c1.1,1.45,2.53,2.72,3.77,4.16,4.14,4.75,10.19,12.64,9.82,18.93-.53,9.27-5.33,11.18-5.33,11.18-3.9,2.47-8,1.53-10.62.57a23.52,23.52,0,0,0-2.73-1.07h0a5.88,5.88,0,0,0-6.91,4.65,5.6,5.6,0,0,0-.11,1.15,6.51,6.51,0,0,0,2.72,5h0s8.28,8.1,23.38,3.22,18.33-17.61,18.89-29.8A56,56,0,0,0,241,199.79Z" transform="translate(-18.65 -5.38)"/><circle cx="242.23" cy="273.91" r="9.56"/><path d="M287.28,246.06c-1.61-2.62-2.9-5.26-5.36-6.93h0a14,14,0,0,0-19.81,19h0c1.09,1.44,2.53,2.71,3.77,4.16,4.14,4.74,10.18,12.64,9.82,18.93-.54,9.27-5.33,11.18-5.33,11.18-3.9,2.47-8,1.52-10.63.57A21.16,21.16,0,0,0,257,291.9h0a5.9,5.9,0,0,0-6.92,4.65,6.31,6.31,0,0,0-.11,1.15,6.52,6.52,0,0,0,2.73,5h0s8.28,8.1,23.38,3.21,18.33-17.6,18.89-29.79A56,56,0,0,0,287.28,246.06Z" transform="translate(-18.65 -5.38)"/><circle cx="288.5" cy="320.18" r="9.56"/><path d="M333.55,292.33c-1.62-2.63-2.91-5.26-5.36-6.93h0a14,14,0,0,0-19.81,19h0c1.09,1.44,2.53,2.71,3.77,4.16,4.14,4.74,10.18,12.64,9.82,18.93-.54,9.27-5.33,11.18-5.33,11.18-3.9,2.46-8,1.52-10.63.56a23.41,23.41,0,0,0-2.72-1.07h0a5.91,5.91,0,0,0-6.92,4.66,6.31,6.31,0,0,0-.11,1.15,6.54,6.54,0,0,0,2.72,5h0s8.28,8.1,23.39,3.21,18.33-17.61,18.88-29.79A55.88,55.88,0,0,0,333.55,292.33Z" transform="translate(-18.65 -5.38)"/><circle cx="334.77" cy="366.44" r="9.56"/><path d="M379.81,338.6c-1.61-2.63-2.9-5.27-5.35-6.93h0a14,14,0,0,0-19.81,19h0c1.09,1.44,2.53,2.71,3.76,4.16,4.15,4.74,10.19,12.64,9.83,18.93-.54,9.27-5.33,11.17-5.33,11.17-3.9,2.47-8,1.53-10.63.57a23.52,23.52,0,0,0-2.73-1.07h0a5.89,5.89,0,0,0-6.91,4.66,6.29,6.29,0,0,0-.11,1.14,6.56,6.56,0,0,0,2.72,5h0s8.28,8.09,23.39,3.21,18.33-17.61,18.88-29.79A55.9,55.9,0,0,0,379.81,338.6Z" transform="translate(-18.65 -5.38)"/><circle cx="381.03" cy="412.71" r="9.56"/><path d="M426.08,384.86c-1.61-2.62-2.9-5.26-5.35-6.92h0a14,14,0,0,0-19.81,19h0c1.09,1.45,2.52,2.72,3.76,4.17,4.15,4.74,10.19,12.64,9.82,18.92-.53,9.28-5.33,11.18-5.33,11.18-3.9,2.47-8,1.53-10.62.57a23.52,23.52,0,0,0-2.73-1.07h0a5.89,5.89,0,0,0-6.91,4.66,5.44,5.44,0,0,0-.11,1.14,6.56,6.56,0,0,0,2.72,5h0s8.28,8.09,23.39,3.21,18.33-17.61,18.88-29.8A56,56,0,0,0,426.08,384.86Z" transform="translate(-18.65 -5.38)"/><circle cx="427.3" cy="458.98" r="9.56"/><path d="M472.35,431.13c-1.61-2.62-2.9-5.26-5.36-6.93h0a14,14,0,0,0-19.81,19h0c1.1,1.45,2.53,2.72,3.77,4.16,4.14,4.75,10.19,12.65,9.82,18.93-.53,9.27-5.33,11.18-5.33,11.18-3.9,2.47-8,1.53-10.62.57a23.52,23.52,0,0,0-2.73-1.07h0a5.89,5.89,0,0,0-6.91,4.65,5.6,5.6,0,0,0-.11,1.15,6.51,6.51,0,0,0,2.72,5h0s8.28,8.1,23.39,3.22,18.32-17.61,18.88-29.8A56,56,0,0,0,472.35,431.13Z" transform="translate(-18.65 -5.38)"/></g></svg>