<?xml version="1.0" encoding="utf-8"?>
<!-- Generator: Adobe Illustrator 24.0.1, SVG Export Plug-In . SVG Version: 6.00 Build 0)  -->
<svg version="1.1" id="Layer_1" xmlns="http://www.w3.org/2000/svg" xmlns:xlink="http://www.w3.org/1999/xlink" x="0px" y="0px"
	 viewBox="0 0 466 119.2" style="enable-background:new 0 0 466 119.2;" xml:space="preserve">
<style type="text/css">
	.st0{enable-background:new    ;}
</style>
<title>WORK</title>
<g class="st0">
	<path d="M89.8,110.2L76.3,46.5h-0.6l-13.5,63.7H25.2L0.8,5.6h35l12,59.3h0.6L60.2,5.6h33.1l12.6,59.3h0.6l11.2-59.3h33.4
		l-24.5,104.6H89.8z"/>
</g>
<g class="st0">
	<path d="M234.7,17.6c9.8,9.2,14.7,22.6,14.7,40.3s-4.9,31.1-14.7,40.3c-9.8,9.2-23.8,13.8-41.8,13.8c-18,0-31.9-4.6-41.7-13.8
		c-9.8-9.2-14.7-22.6-14.7-40.4c0-17.7,4.9-31.2,14.7-40.4c9.8-9.2,23.7-13.8,41.7-13.8C210.9,3.8,224.9,8.4,234.7,17.6z
		 M176.5,35.4c-3.8,4.4-5.6,10.2-5.6,17.6v9.7c0,7.4,1.9,13.3,5.6,17.6c3.7,4.4,9.2,6.5,16.4,6.5c7.2,0,12.7-2.2,16.5-6.5
		c3.8-4.4,5.7-10.2,5.7-17.6V53c0-7.4-1.9-13.3-5.7-17.6c-3.8-4.4-9.3-6.5-16.5-6.5C185.7,28.9,180.2,31.1,176.5,35.4z"/>
	<path d="M342,55c-3.4,5.2-8.5,9-15,11.4l23.3,43.8h-37.7L294,72h-12.5v38.2h-33.6V5.6h64c7.5,0,13.9,1.4,19.2,4.3
		c5.3,2.9,9.3,6.8,12,11.7c2.7,4.9,4,10.3,4,16C347.2,44.1,345.4,49.9,342,55z M310.2,32.2c-1.8-1.8-4.1-2.7-6.7-2.7h-22v19.3h22
		c2.6,0,4.9-0.9,6.7-2.8c1.8-1.9,2.7-4.2,2.7-6.9C313,36.3,312.1,34,310.2,32.2z"/>
	<path d="M417.4,5.6H459l-37.5,43l38.3,61.6h-39.7l-21.7-38.3l-18.2,14.9v23.4h-33.6V5.6h33.6v44.7L417.4,5.6z"/>
</g>
</svg>
