<?xml version="1.0" encoding="utf-8"?>
<!-- Generator: Adobe Illustrator 24.0.1, SVG Export Plug-In . SVG Version: 6.00 Build 0)  -->
<svg version="1.1" id="Layer_1" xmlns="http://www.w3.org/2000/svg" xmlns:xlink="http://www.w3.org/1999/xlink" x="0px" y="0px"
	 viewBox="0 0 538.9 119.2" style="enable-background:new 0 0 538.9 119.2;" xml:space="preserve">
<style type="text/css">
	.st0{enable-background:new    ;}
</style>
<title>CONTACT</title>
<g class="st0">
	<path d="M97.9,15.4c9,7.8,13.5,18.8,13.5,33.2H79.3c0-6.1-1.6-10.9-4.8-14.4c-3.2-3.5-7.7-5.3-13.6-5.3c-6.8,0-11.8,2.1-15,6.4
		c-3.2,4.3-4.8,10.2-4.8,17.8v9.7c0,7.5,1.6,13.4,4.8,17.7c3.2,4.3,8.1,6.5,14.7,6.5c6.5,0,11.4-1.7,14.7-5c3.3-3.3,5-8.1,5-14.1h31
		c0,14.3-4.4,25.2-13.1,32.8c-8.8,7.6-21.2,11.4-37.2,11.4c-17.8,0-31.3-4.6-40.5-13.7C11.4,89.2,6.8,75.7,6.8,57.9
		c0-17.8,4.6-31.3,13.8-40.4C29.8,8.4,43.3,3.8,61.1,3.8C76.6,3.8,88.9,7.7,97.9,15.4z"/>
	<path d="M202,17.6c9.8,9.2,14.7,22.6,14.7,40.3S211.8,89,202,98.2c-9.8,9.2-23.8,13.8-41.8,13.8c-18,0-31.9-4.6-41.7-13.8
		c-9.8-9.2-14.7-22.6-14.7-40.4c0-17.7,4.9-31.2,14.7-40.4c9.8-9.2,23.7-13.8,41.7-13.8C178.2,3.8,192.2,8.4,202,17.6z M143.8,35.4
		c-3.8,4.4-5.6,10.2-5.6,17.6v9.7c0,7.4,1.9,13.3,5.6,17.6c3.7,4.4,9.2,6.5,16.4,6.5c7.2,0,12.7-2.2,16.5-6.5
		c3.8-4.4,5.7-10.2,5.7-17.6V53c0-7.4-1.9-13.3-5.7-17.6c-3.8-4.4-9.3-6.5-16.5-6.5C153,28.9,147.5,31.1,143.8,35.4z"/>
	<path d="M288.3,110.2l-43.9-50.8v50.8h-30.9V5.6h29.3l43.9,51.5V5.6h30.9v104.6H288.3z"/>
</g>
<g class="st0">
	<path d="M381.4,32.4v77.8h-33.6V32.4h-34.4V5.6h102.1v26.8H381.4z"/>
</g>
<g class="st0">
	<path d="M470.1,110.2l-4.4-14.7h-36.6l-4.4,14.7h-34.4L428.5,5.6h39.1l38.2,104.6H470.1z M436.1,72h22.6l-10.9-37.2h-0.6L436.1,72z
		"/>
</g>
</svg>
